<svg width="117" height="117" viewBox="0 0 117 117" fill="none" xmlns="http://www.w3.org/2000/svg">
<circle cx="58.5" cy="58.5" r="56" fill="#1EACCB" stroke="white" stroke-width="5"/>
<path fill-rule="evenodd" clip-rule="evenodd" d="M59.8802 27.5471C61.4746 27.5471 63.0037 26.9199 64.1311 25.8036C65.2585 24.6873 65.8919 23.1732 65.8919 21.5945C65.8919 20.0158 65.2585 18.5017 64.1311 17.3854C63.0037 16.2691 61.4746 15.6419 59.8802 15.6419C58.2858 15.6419 56.7567 16.2691 55.6293 17.3854C54.5019 18.5017 53.8685 20.0158 53.8685 21.5945C53.8685 23.1732 54.5019 24.6873 55.6293 25.8036C56.7567 26.9199 58.2858 27.5471 59.8802 27.5471ZM59.8802 32.3091C62.7501 32.3091 65.5025 31.1803 67.5318 29.1709C69.5612 27.1615 70.7012 24.4362 70.7012 21.5945C70.7012 18.7528 69.5612 16.0275 67.5318 14.0181C65.5025 12.0087 62.7501 10.8799 59.8802 10.8799C57.0103 10.8799 54.2579 12.0087 52.2285 14.0181C50.1992 16.0275 49.0591 18.7528 49.0591 21.5945C49.0591 24.4362 50.1992 27.1615 52.2285 29.1709C54.2579 31.1803 57.0103 32.3091 59.8802 32.3091ZM49.2515 37.8022C49.908 37.5164 51.1247 37.0712 52.6661 37.0712H57.4755C58.8486 37.0712 59.9451 37.4617 60.2409 37.5688L60.2625 37.5736C60.7435 37.745 61.1883 37.945 61.5563 38.1212C62.3089 38.4855 63.1289 38.9474 63.9706 39.4737C66.0615 40.7992 68.0457 42.283 69.9053 43.9119C74.1808 47.6358 79.2451 53.2741 82.2076 60.61C84.0929 65.2721 83.9583 69.7699 82.2076 73.6866C80.5677 77.3487 77.7927 79.8845 75.4313 81.5369C68.097 86.6656 67.7531 89.9991 65.8871 99.2375C65.8181 101.108 65.0103 102.877 63.6376 104.164C62.2648 105.451 60.4368 106.153 58.5468 106.119C56.6567 106.085 54.8557 105.317 53.5311 103.982C52.2065 102.647 51.4641 100.85 51.4638 98.9779C51.4638 86.7561 51.459 79.4844 50.9011 72.608C49.3853 73.7009 47.4992 74.1665 45.6427 73.906C43.7861 73.6456 42.1049 72.6796 40.9554 71.2128C39.6904 69.5255 38.4747 67.8025 37.3099 66.0459C36.5698 64.947 35.8641 63.8258 35.1937 62.6839C34.8651 62.1193 34.5626 61.5401 34.2872 60.9481C34.1501 60.6458 33.9746 60.2338 33.8255 59.76C33.5669 58.9684 33.433 58.142 33.4287 57.3099C33.4287 55.6051 34.0539 54.2813 34.1934 53.9932V53.986L34.2006 53.9765C34.4267 53.486 34.6815 53.0479 34.8835 52.7146C35.2996 52.0336 35.8142 51.2883 36.3408 50.5716C37.5877 48.887 38.9001 47.2508 40.2748 45.6667C41.7176 44 43.3504 42.2452 44.8774 40.8475C45.6252 40.1618 46.5078 39.4189 47.4384 38.7998C47.9049 38.4879 48.5205 38.1165 49.2515 37.7998M52.6661 41.8333C50.8987 41.8333 49.3597 43.2285 48.1405 44.3452C46.8059 45.5667 45.3102 47.1691 43.9275 48.7668C42.638 50.2511 41.4067 51.784 40.2364 53.3622C39.6304 54.1908 39.0004 55.0384 38.5675 55.9694C38.361 56.3874 38.2486 56.8448 38.2381 57.3099C38.2381 58.3981 38.8489 59.4124 39.3731 60.3267C39.9093 61.2577 40.6139 62.3601 41.3233 63.422C42.4214 65.077 43.5657 66.7015 44.7548 68.2936C45.1485 68.7844 45.7218 69.1016 46.3503 69.1765C46.9787 69.2514 47.6116 69.0779 48.1117 68.6937C48.6118 68.3094 48.9388 67.7454 49.0216 67.1241C49.1044 66.5027 48.9364 65.874 48.5541 65.3745C46.9633 63.2336 45.4552 61.0335 44.0333 58.779L43.2013 57.4242L44.1416 56.1409C45.4966 54.3144 46.9386 52.5528 48.4628 50.8621L51.6802 47.281L52.6181 51.9812C56.2539 70.1865 56.2732 76.1748 56.2732 98.9779C56.2732 99.6094 56.5265 100.215 56.9775 100.662C57.4285 101.108 58.0401 101.359 58.6778 101.359C60.1712 101.359 61.0825 100.118 61.0825 98.7422C63.0447 89.0276 64.1966 83.5632 72.6563 77.6463C74.6161 76.2772 76.648 74.3486 77.8095 71.7556C79.007 69.0794 79.1729 65.9174 77.7422 62.3791C75.1523 55.9647 70.658 50.9097 66.7287 47.4858C65.061 46.0244 63.2819 44.6926 61.4072 43.5023C60.5295 42.9547 59.6157 42.4071 58.637 42.0571C58.2662 41.9152 57.873 41.8394 57.4755 41.8333H52.6661Z" fill="white"/>
</svg>
